<svg xmlns="http://www.w3.org/2000/svg" viewBox="0 0 400 800">
  <!-- Váy dài xếp ly chấm đất nữ (đi cùng áo tứ thân thả vạt). Cạp ở eo y=314, gấu y≈778 phủ mu bàn chân, loe rộng.
       #0000FF = màu váy (c-bottom). Bám số đo nữ: hông 151–249 (y=414); váy phủ 147–253 ở hông. -->
  <g id="vay_xep_ly_nu" stroke="#000" stroke-opacity="0.3" stroke-width="1.3" stroke-linejoin="round">
    <path id="patch_khe" d="M 146.5 304.5 L 253.5 304.5 L 253.5 308.5 L 146.5 308.5 Z M 112.5 447.0 L 114.5 449.5 L 115.0 452.5 L 113.5 450.5 L 112.5 449.0 Z M 287.0 447.0 L 287.5 449.0 L 285.5 452.5 L 285.0 450.5 Z M 284.5 457.0 L 287.0 457.5 L 287.0 458.0 L 284.5 458.0 Z M 113.0 457.5 L 115.0 458.0 L 113.0 458.5 Z M 152.5 775.5 L 155.0 775.5 L 155.0 776.0 L 152.5 776.0 Z M 244.0 775.5 L 246.5 775.5 L 246.5 776.0 L 244.0 776.0 Z M 157.5 776.0 L 160.0 776.0 L 160.0 776.5 L 157.5 776.5 Z M 239.0 776.0 L 241.5 776.0 L 241.5 776.5 L 239.0 776.5 Z M 165.5 776.5 L 168.0 776.5 L 168.0 777.0 L 165.5 777.0 Z M 230.5 776.5 L 233.0 776.5 L 233.0 777.0 L 230.5 777.0 Z M 174.5 777.0 L 177.0 777.0 L 177.0 777.5 L 174.5 777.5 Z M 222.0 777.0 L 224.5 777.0 L 224.5 777.5 L 222.0 777.5 Z" fill="#0000FF" stroke="none"/>
    <path id="vai_vay" d="M 145.9 308.6 L 254.0 308.6 C 268.5 348.3 279.6 382.4 285.4 418.4 L 277.7 771.5 Q 199.9 783.7 121.4 771.6 L 114.7 418.4 C 120.7 382.4 131.4 348.3 145.9 308.6 Z" fill="#0000FF"/>
    <path id="bong" d="M 114.7 418.4 L 126.4 418.4 L 133.4 773.9 L 121.4 771.6 Z M 285.4 418.4 L 273.7 418.4 L 265.7 773.8 L 277.7 771.5 Z" fill="#000" fill-opacity="0.1" stroke="none"/>
    <path id="nep_ly" d="M 150.2 427.8 L 148.4 773.9 M 174.9 427.8 L 166.1 776.3 M 200.9 427.8 L 200.1 778.9 M 226.6 427.8 L 233.8 776.3 M 250.5 427.8 L 250.9 773.8" fill="none" stroke="#000" stroke-opacity="0.16" stroke-width="1.2"/>
  </g>
</svg>
