<svg xmlns="http://www.w3.org/2000/svg" viewBox="0 0 400 800">
  <!-- Hài thêu: mũi cong, thân vải (màu điểm nhấn) thêu chỉ vàng, đế trắng – hướng TRƯỚC. Sinh bằng tools/gen_accessories.py. -->
  <g id="hai_theu" stroke="#000" stroke-opacity="0.3" stroke-width="1.3" stroke-linejoin="round" stroke-linecap="round">
    <path d="M164.0 778.0 C163.0 769.0 169.0 763.0 180.0 762.0 C191.0 763.0 197.0 769.0 196.0 778.0 Q196.0 786.0 190.0 786.0 L170.0 786.0 Q164.0 786.0 164.0 778.0 Z" fill="#FF00FF"/>
    <path d="M177.0 763.0 Q179.0 753.0 184.0 757.0" fill="none" stroke="#FF00FF" stroke-opacity="1" stroke-width="3"/>
    <path d="M171.0 772.0 q3 -3 6 0 q3 3 6 0 q3 -3 6 0" fill="none" stroke="#D9B44A" stroke-opacity="1" stroke-width="1.3"/>
    <rect x="164.0" y="784" width="32" height="4" rx="2" fill="#EFE6D2"/>
    <path d="M204.0 778.0 C203.0 769.0 209.0 763.0 220.0 762.0 C231.0 763.0 237.0 769.0 236.0 778.0 Q236.0 786.0 230.0 786.0 L210.0 786.0 Q204.0 786.0 204.0 778.0 Z" fill="#FF00FF"/>
    <path d="M217.0 763.0 Q219.0 753.0 224.0 757.0" fill="none" stroke="#FF00FF" stroke-opacity="1" stroke-width="3"/>
    <path d="M211.0 772.0 q3 -3 6 0 q3 3 6 0 q3 -3 6 0" fill="none" stroke="#D9B44A" stroke-opacity="1" stroke-width="1.3"/>
    <rect x="204.0" y="784" width="32" height="4" rx="2" fill="#EFE6D2"/>
  </g>
</svg>
