<svg xmlns="http://www.w3.org/2000/svg" viewBox="0 0 400 800">
  <!-- Quạt giấy xoè cầm ở tay trái người mẫu, mặt quạt màu điểm nhấn, nan tre – hướng TRƯỚC. Sinh bằng tools/gen_accessories.py. -->
  <g id="quat_giay_nu" stroke="#000" stroke-opacity="0.3" stroke-width="1.3" stroke-linejoin="round" stroke-linecap="round">
    <path id="patch_khe" d="M 287.5 453.5 L 290.0 454.0 L 292.5 455.5 L 296.0 457.0 L 294.5 460.5 L 291.0 459.5 L 289.5 458.0 L 287.5 458.0 L 286.5 464.0 L 283.0 474.5 L 282.0 474.5 L 282.0 468.5 L 284.0 462.5 L 284.5 458.0 L 287.0 457.5 L 287.0 454.0 Z M 286.0 469.5 L 286.5 469.5 L 286.0 476.5 L 284.0 476.5 L 285.5 471.0 Z M 288.0 470.5 L 288.5 470.5 L 288.5 474.0 L 288.0 474.0 Z" fill="#FF0000" stroke="none"/>
    <path id="nan_trong" d="M 288.7 459.3 L 339.1 478.2 M 288.7 459.3 L 334.9 488.3 M 288.7 459.3 L 329.7 497.4 M 288.7 459.3 L 323.7 505.2 M 288.7 459.3 L 316.9 511.6 M 288.7 459.3 L 309.3 516.3 M 288.7 459.3 L 300.9 519.1 M 288.7 459.3 L 291.6 519.9 M 288.7 459.3 L 281.4 518.7 M 288.7 459.3 L 270.1 515.5" fill="none" stroke="#8A5A32" stroke-opacity="1" stroke-width="1.6"/>
    <path id="mat_quat" d="M 302.8 466.8 L 341.2 478.9 A 69.9 62.1 0.0 0 1 268.9 517.4 L 283.0 481.9 A 7.2 24.3 0.0 0 0 302.8 466.8 Z" fill="#FF00FF"/>
    <path id="nep_gap" d="M 301.8 468.9 L 339.2 484.1 M 299.6 472.8 L 334.4 494.1 M 297.0 476.2 L 328.6 502.9 M 294.2 479.1 L 322.0 510.3 M 291.5 481.4 L 314.5 516.0 M 289.0 482.8 L 306.2 519.9 M 286.9 483.5 L 296.8 521.7 M 285.2 483.5 L 286.5 521.5 M 283.7 482.6 L 275.0 519.3" fill="none" stroke="#000" stroke-opacity="0.16" stroke-width="1"/>
    <path id="hoa_van" d="M 328.5 480.8 A 57.4 52.3 0.0 0 1 279.7 509.8" fill="none" stroke="#D9B44A" stroke-opacity="1" stroke-width="1.6"/>
    <circle id="dinh_quat" cx="288.7" cy="459.3" r="1.7" fill="#8A5A32"/>
  </g>
</svg>
